<svg width="440" height="29" viewBox="0 0 440 29" fill="none" xmlns="http://www.w3.org/2000/svg">
<path d="M30.256 5.525V10.144H11.532L23.498 14.515C27.497 16.127 30.256 17.522 30.256 21.273V23.04C30.256 23.133 30.256 23.257 30.256 23.381C30.256 25.954 28.179 28 25.637 28H4.619C2.046 28 0 25.954 0 23.381V18.762H18.445L6.727 14.515C2.728 12.872 0 11.477 0 7.757V5.959V5.99C0 5.835 0 5.68 0 5.525C0 2.952 2.046 0.906 4.619 0.906H25.637C28.179 0.906 30.256 2.952 30.256 5.525ZM41.5507 19.041H60.7397V26.171V27.969V28H43.5037H31.8477V0.874998H41.5507V19.041ZM98.851 0.843999H109.112V27.969H98.851V14.143L85.707 28.527L85.769 28.62H85.707V28.527L72.563 14.143V27.969H62.333V0.843999H72.563L85.707 15.135L98.851 0.843999ZM152.316 9.276V9.09C152.316 7.974 150.642 7.044 148.565 7.044H138.428V11.012H149.123C150.89 11.012 152.316 10.237 152.316 9.276ZM152.316 18.607V18.421C152.316 17.305 150.642 16.406 148.565 16.406H138.428V20.374H149.123C150.89 20.374 152.316 19.568 152.316 18.607ZM156.005 13.709C159.043 14.794 161.213 17.708 161.213 21.118C161.213 24.931 158.144 28 154.331 28H137.932C137.901 28 137.901 28 137.901 28H129.934V0.906H136.165H141.714H152.595C156.439 0.906 159.539 4.006 159.539 7.85C159.539 10.392 158.113 12.593 156.005 13.709ZM184.48 9.71V9.493C184.48 8.594 183.023 7.881 181.256 7.881H171.894V11.322H181.256C183.023 11.322 184.48 10.609 184.48 9.71ZM190.432 17.057L196.043 28H186.681L182 18.917H171.894V28H162.78V0.906H163.431H171.894H185.441C189.657 0.906 193.067 4.285 193.067 8.501V11.291C193.067 13.585 192.044 15.662 190.432 17.057ZM213.281 16.065H217.931L215.606 11.415L213.281 16.065ZM223.883 28L221.775 23.815H209.406L207.329 28H196.262L209.778 0.874998H210.367H214.49H220.845L221.434 0.906L234.95 28H223.883ZM247.304 28H236.95V0.874998H247.304V28ZM273.192 0.906H283.391V28H274.68H273.192L259.986 14.205V28H249.756V0.874998H259.986L273.192 14.608V0.906ZM324.108 0.874998H336.167V28H324.108V19.041H316.73V28H304.702V0.874998H316.73V9.865H324.108V0.874998ZM353.416 16.065H358.066L355.741 11.415L353.416 16.065ZM364.018 28L361.91 23.815H349.541L347.464 28H336.397L349.913 0.874998H350.502H354.625H360.98L361.569 0.906L375.085 28H364.018ZM387.316 19.754H406.629V28H385.27H383.472C379.938 28 377.086 25.148 377.086 21.614V7.292C377.086 3.758 379.938 0.906 383.472 0.906H387.316H406.288V9.152H387.316V19.754ZM428.203 10.578L439.27 28H429.226L421.755 16.995L421.507 16.561L417.973 19.723L417.291 20.343V28H408.177V0.906H412.734H417.291V9.028V10.826L417.973 10.237V10.206L419.027 9.245L424.359 4.471L425.103 3.789L428.327 0.906H438.898L428.172 10.547L428.203 10.578Z" fill="#1D1D1D"/>
</svg>
